<?xml version="1.0" encoding="utf-8"?>
<!-- Generator: Adobe Illustrator 18.1.1, SVG Export Plug-In . SVG Version: 6.00 Build 0)  -->
<!DOCTYPE svg PUBLIC "-//W3C//DTD SVG 1.1//EN" "http://www.w3.org/Graphics/SVG/1.1/DTD/svg11.dtd">
<svg version="1.1" xmlns="http://www.w3.org/2000/svg" xmlns:xlink="http://www.w3.org/1999/xlink" x="0px" y="0px"
	 viewBox="0 0 178 178" enable-background="new 0 0 178 178" xml:space="preserve">
<g id="food__x2B__drink">
</g>
<g id="state_of_mind">
	<g>
		<path fill="none" stroke="#000000" stroke-width="3" stroke-linecap="round" stroke-linejoin="round" stroke-miterlimit="10" d="
			M89,9.4c0-6,0-7.9,0-7.9"/>
		<path fill="none" stroke="#000000" stroke-width="3" stroke-linecap="round" stroke-linejoin="round" stroke-miterlimit="10" d="
			M114.1,163.9c0,6.9-5.6,12.6-12.6,12.6s-13-5.6-12.6-12.6c0-37.8,0-70.2,0-96.8"/>
		<g>
			<path fill="none" stroke="#000000" stroke-width="3" stroke-linecap="round" stroke-linejoin="round" stroke-miterlimit="10" d="
				M115.7,91.2c0.6-14.1,12.3-25.4,26.6-25.4c14.3,0,25.9,11.2,26.6,25.4c0-0.2,0-0.4,0-0.6c0-44.1-35.8-79.9-79.9-79.9
				S9.1,46.5,9.1,90.6c0,0.2,0,0.4,0,0.6C9.8,77,21.5,65.8,35.7,65.8C50,65.8,61.7,77,62.3,91.2l0.1,0C63.1,77.1,74.7,65.8,89,65.8
				C103.3,65.8,115,77.1,115.7,91.2L115.7,91.2z"/>
		</g>
	</g>
</g>
<g id="weather">
</g>
</svg>
