<?xml version="1.0" encoding="utf-8"?>
<!-- Generator: Adobe Illustrator 18.1.1, SVG Export Plug-In . SVG Version: 6.00 Build 0)  -->
<!DOCTYPE svg PUBLIC "-//W3C//DTD SVG 1.1//EN" "http://www.w3.org/Graphics/SVG/1.1/DTD/svg11.dtd">
<svg version="1.1" xmlns="http://www.w3.org/2000/svg" xmlns:xlink="http://www.w3.org/1999/xlink" x="0px" y="0px"
	 viewBox="0 0 178 178" enable-background="new 0 0 178 178" xml:space="preserve">
<g id="food__x2B__drink">
</g>
<g id="state_of_mind">
</g>
<g id="weather">
	<g>
		<path fill="none" stroke="#000000" stroke-width="3" stroke-linecap="round" stroke-linejoin="round" stroke-miterlimit="10" d="
			M39,89c0-13.8,5.6-26.3,14.6-35.4"/>
		<path fill="none" stroke="#000000" stroke-width="3" stroke-linecap="round" stroke-linejoin="round" stroke-miterlimit="10" d="
			M89,139c13.8,0,26.3-5.6,35.4-14.6"/>
		<path fill="none" stroke="#000000" stroke-width="3" stroke-linecap="round" stroke-linejoin="round" stroke-miterlimit="10" d="
			M139,89c0-13.8-5.6-26.3-14.6-35.4"/>
		<path fill="none" stroke="#000000" stroke-width="3" stroke-linecap="round" stroke-linejoin="round" stroke-miterlimit="10" d="
			M89,39c-13.8,0-26.3,5.6-35.4,14.6"/>
		<path fill="none" stroke="#000000" stroke-width="3" stroke-linecap="round" stroke-linejoin="round" stroke-miterlimit="10" d="
			M139,89c0,13.8-5.6,26.3-14.6,35.4"/>
		<path fill="none" stroke="#000000" stroke-width="3" stroke-linecap="round" stroke-linejoin="round" stroke-miterlimit="10" d="
			M124.4,53.6c-9-9-21.5-14.6-35.4-14.6"/>
		<path fill="none" stroke="#000000" stroke-width="3" stroke-linecap="round" stroke-linejoin="round" stroke-miterlimit="10" d="
			M89,139c-13.8,0-26.3-5.6-35.4-14.6"/>
		<path fill="none" stroke="#000000" stroke-width="3" stroke-linecap="round" stroke-linejoin="round" stroke-miterlimit="10" d="
			M39,89c0,13.8,5.6,26.3,14.6,35.4"/>
		
			<line fill="none" stroke="#000000" stroke-width="3" stroke-linecap="round" stroke-linejoin="round" stroke-miterlimit="10" x1="124.4" y1="124.4" x2="150.9" y2="150.9"/>
		
			<line fill="none" stroke="#000000" stroke-width="3" stroke-linecap="round" stroke-linejoin="round" stroke-miterlimit="10" x1="176.5" y1="89" x2="139" y2="89"/>
		
			<line fill="none" stroke="#000000" stroke-width="3" stroke-linecap="round" stroke-linejoin="round" stroke-miterlimit="10" x1="89" y1="139" x2="89" y2="176.5"/>
		
			<line fill="none" stroke="#000000" stroke-width="3" stroke-linecap="round" stroke-linejoin="round" stroke-miterlimit="10" x1="53.6" y1="124.4" x2="27.1" y2="150.9"/>
		
			<line fill="none" stroke="#000000" stroke-width="3" stroke-linecap="round" stroke-linejoin="round" stroke-miterlimit="10" x1="39" y1="89" x2="1.5" y2="89"/>
		
			<line fill="none" stroke="#000000" stroke-width="3" stroke-linecap="round" stroke-linejoin="round" stroke-miterlimit="10" x1="89" y1="1.5" x2="89" y2="39"/>
		
			<line fill="none" stroke="#000000" stroke-width="3" stroke-linecap="round" stroke-linejoin="round" stroke-miterlimit="10" x1="27.1" y1="27.1" x2="53.6" y2="53.6"/>
		
			<line fill="none" stroke="#000000" stroke-width="3" stroke-linecap="round" stroke-linejoin="round" stroke-miterlimit="10" x1="150.9" y1="27.1" x2="124.4" y2="53.6"/>
	</g>
</g>
</svg>
