<?xml version="1.0" encoding="utf-8"?>
<!-- Generator: Adobe Illustrator 18.1.1, SVG Export Plug-In . SVG Version: 6.00 Build 0)  -->
<!DOCTYPE svg PUBLIC "-//W3C//DTD SVG 1.1//EN" "http://www.w3.org/Graphics/SVG/1.1/DTD/svg11.dtd">
<svg version="1.1" xmlns="http://www.w3.org/2000/svg" xmlns:xlink="http://www.w3.org/1999/xlink" x="0px" y="0px"
	 viewBox="0 0 178 178" enable-background="new 0 0 178 178" xml:space="preserve">
<g id="food__x2B__drink">
	<g>
		<g>
			
				<line fill="none" stroke="#000000" stroke-width="4" stroke-linecap="round" stroke-linejoin="round" stroke-miterlimit="10" x1="63" y1="13" x2="59.1" y2="48.6"/>
			
				<line fill="none" stroke="#000000" stroke-width="4" stroke-linecap="round" stroke-linejoin="round" stroke-miterlimit="10" x1="106.5" y1="13" x2="102.5" y2="48.6"/>
			
				<line fill="none" stroke="#000000" stroke-width="4" stroke-linecap="round" stroke-linejoin="round" stroke-miterlimit="10" x1="85.6" y1="5.5" x2="80" y2="56.1"/>
		</g>
		<g>
			<path fill="none" stroke="#000000" stroke-width="3" stroke-linecap="round" stroke-linejoin="round" stroke-miterlimit="10" d="
				M155.2,80.9c0.2,0,0.3,0.1,0.5,0.1c10.9,2.9,16.7,16.3,13.1,29.8c-3.6,13.6-15.4,22.2-26.2,19.3c-2.5-0.7-4.7-1.9-6.6-3.5"/>
			<path fill="none" stroke="#000000" stroke-width="3" stroke-linecap="round" stroke-linejoin="round" stroke-miterlimit="10" d="
				M155.2,80.9c0.2-3.9-0.2-7.6-1.3-11.2H11.7c-9.5,31.6,34.8,77.7,34.8,77.7v11.6h72.7v-11.6c0,0,8.2-8.5,16.7-20.7"/>
			<path fill="none" stroke="#000000" stroke-width="3" stroke-linecap="round" stroke-linejoin="round" stroke-miterlimit="10" d="
				M155.2,80.9c-0.7,15.6-10.2,32.7-19.3,45.7"/>
		</g>
		
			<line fill="none" stroke="#000000" stroke-width="3.0717" stroke-linecap="round" stroke-linejoin="round" stroke-miterlimit="10" x1="8.2" y1="172.5" x2="157.3" y2="172.5"/>
	</g>
</g>
<g id="state_of_mind">
</g>
<g id="weather">
</g>
</svg>
