<?xml version="1.0" encoding="utf-8"?>
<!-- Generator: Adobe Illustrator 18.1.1, SVG Export Plug-In . SVG Version: 6.00 Build 0)  -->
<!DOCTYPE svg PUBLIC "-//W3C//DTD SVG 1.1//EN" "http://www.w3.org/Graphics/SVG/1.1/DTD/svg11.dtd">
<svg version="1.1" xmlns="http://www.w3.org/2000/svg" xmlns:xlink="http://www.w3.org/1999/xlink" x="0px" y="0px"
	 viewBox="0 0 178 145" enable-background="new 0 0 178 145" xml:space="preserve">
<g id="food__x2B__drink">
</g>
<g id="state_of_mind">
	<g>
		<path fill="none" stroke="#000000" stroke-width="2" stroke-linecap="round" stroke-linejoin="round" d="M122.8,92.8
			c0-24.5-14.9-44.3-33.2-44.3h0c-18.3,0-33.2,19.8-33.2,44.3l0.4,7.1c2.5,21.1,16.2,37.2,32.8,37.2s30.2-16.1,32.8-37.2L122.8,92.8
			z"/>
		<path d="M176.5,91.2c0,8-3.6,14.5-8,14.5c-0.3,0-0.6,0-0.8-0.1c-0.1,7.3-2.5,13.3-5.6,15.2v0.2c0,9.1-5,16.5-11.1,16.5
			c-3.2,0-6.1-2-8.1-5.2c-2.2,1.5-4.8,2.4-7.6,2.4c-5.5,0-10.4-3.5-13-8.6c-1.8,1.4-4.2,2.2-6.7,2.2c-5.9,0-10.7-4.3-10.7-9.7
			c0-5.1,4.4-9.3,10-9.6c-1-1.9-1.6-4.1-1.6-6.5c0-4.4,2-8.3,5.1-10.6c-1.9-2.8-3.1-6.5-3.1-10.7c0-3,0.6-5.8,1.6-8.1
			c-0.3,0-0.7,0.1-1,0.1c-4.7,0-8.6-4.7-9.6-10.9c-1.9,0.6-3.9,0.9-6.1,0.9c-5.8,0-11-2.2-13.9-5.6c-1.6,1.8-3.6,2.8-5.8,2.8
			c-2.7,0-5.2-1.6-6.9-4.3c-0.5,0.2-1,0.4-1.5,0.6c0.1,0.8,0.2,1.6,0.2,2.5c0,7.8-4.4,14.1-9.9,14.1c-0.3,0-0.7,0-1-0.1
			c1,2.4,1.6,5.1,1.6,8.1c0,4.2-1.2,8-3.1,10.7c3.1,2.3,5.1,6.2,5.1,10.6c0,2.4-0.6,4.6-1.6,6.5c5.6,0.3,10,4.5,10,9.6
			c0,5.3-4.8,9.7-10.7,9.7c-2.5,0-4.9-0.8-6.7-2.2c-2.6,5.1-7.5,8.6-13,8.6c-2.8,0-5.4-0.9-7.6-2.4c-2,3.2-4.9,5.2-8.1,5.2
			c-6.1,0-11.1-7.4-11.1-16.5v-0.2c-1.5-0.9-2.8-2.7-3.8-5.2c-4.9-2.7-8.3-8.2-8.3-14.5c0-4.6,1.8-8.8,4.7-11.8
			c-4.5-3.6-7.5-9.9-7.5-17.2c0-11.2,7.2-20.3,16.1-20.3c0.2,0,0.4,0,0.6,0C18,51,18,50.2,18,49.4c0-9.3,6.8-16.9,15.3-16.9
			c3.1,0,6,1.1,8.5,2.8c-0.5-1.4-0.8-3-0.8-4.6c0-6.8,4.9-12.3,11.1-12.3c3.3,0,6.2,1.6,8.3,4.1v-0.1c0-6.2,5-11.3,11.3-11.3
			c4.1,0,7.6,2.1,9.6,5.4c1.9-5.4,5.3-9,9.3-9c3.8,0,7.1,3.2,9,8.2c1.3-1.3,3-2.1,4.9-2.1c1.1,0,2.1,0.3,3,0.7c2-2.5,4.5-4,7.3-4
			c4.8,0,8.9,4.5,10.5,10.8c2.8-2.7,6.7-4.4,11-4.4c8.8,0,15.9,7,15.9,15.7c0,0.6,0,1.2-0.1,1.7c4,2.1,6.9,6.1,8,11
			c7.8,1.4,13.8,9.9,13.8,20.1c0,4.5-1.1,8.6-3.1,12C174,78.9,176.5,84.5,176.5,91.2z"/>
	</g>
</g>
<g id="weather">
</g>
</svg>
