<?xml version="1.0" encoding="utf-8"?>
<!-- Generator: Adobe Illustrator 18.1.1, SVG Export Plug-In . SVG Version: 6.00 Build 0)  -->
<!DOCTYPE svg PUBLIC "-//W3C//DTD SVG 1.1//EN" "http://www.w3.org/Graphics/SVG/1.1/DTD/svg11.dtd">
<svg version="1.1" xmlns="http://www.w3.org/2000/svg" xmlns:xlink="http://www.w3.org/1999/xlink" x="0px" y="0px"
	 viewBox="0 0 178 178" enable-background="new 0 0 178 178" xml:space="preserve">
<g id="food__x2B__drink">
</g>
<g id="state_of_mind">
	<g>
		<g>
			<path d="M52,137.1C26.1,123.9,8.5,97.5,8.5,66.9c0-43.7,36-65.4,80.5-65.4s80.5,21.7,80.5,65.4c0,30.5-17.6,57-43.5,70.2
				c0.3-2.4,0.5-4.9,0.5-7.5c0-25.9-16.8-46.9-37.5-46.9s-37.5,21-37.5,46.9C51.5,132.1,51.6,134.7,52,137.1z"/>
		</g>
		<path fill="none" stroke="#000000" stroke-width="2" stroke-linecap="round" stroke-linejoin="round" d="M126.5,129.6
			c0-25.9-16.8-46.9-37.5-46.9h0c-20.7,0-37.5,21-37.5,46.9l0.5,7.5c2.9,22.3,18.4,39.4,37,39.4s34.2-17.1,37-39.4L126.5,129.6z"/>
	</g>
</g>
<g id="weather">
</g>
</svg>
