<?xml version="1.0" encoding="utf-8"?>
<!-- Generator: Adobe Illustrator 18.1.1, SVG Export Plug-In . SVG Version: 6.00 Build 0)  -->
<!DOCTYPE svg PUBLIC "-//W3C//DTD SVG 1.1//EN" "http://www.w3.org/Graphics/SVG/1.1/DTD/svg11.dtd">
<svg version="1.1" xmlns="http://www.w3.org/2000/svg" xmlns:xlink="http://www.w3.org/1999/xlink" x="0px" y="0px"
	 viewBox="0 0 178 70" enable-background="new 0 0 178 70" xml:space="preserve">
<g id="food__x2B__drink">
</g>
<g id="state_of_mind">
	<g>
		<path d="M17.3,15.8c-8.2,8.7-1.8,25.6-1.8,25.6c3.2,10.8,8.1,15.6,13.3,17.1c32.1,9.1,40.1-14.1,43.6-26.6
			c3.5-12.6-3-16.1-7.2-17.6C39.7,4.6,20.6,12.3,17.3,15.8z"/>
		<path fill="none" stroke="#000000" stroke-width="3" stroke-miterlimit="10" d="M99.1,9.8c33.5-12.2,76.7-0.7,76.7-0.7l0.7,11.5
			c-1,1.7-4.6,1.8-4.6,1.8c-2.1,19.9-4.4,33-12.1,37.3c-17.1,9.5-51.1,14-62.9-29.8c-1.1-4.2-5.1-5.3-8.1-5.3c-3,0-6.7,1.4-7.8,5.3
			C69.2,73.5,35.3,69,18.1,59.6c-7.7-4.3-10-17.3-12.1-37.3c0,0-3.6-0.1-4.6-1.8L2.2,9.1c0,0,43.2-11.5,76.7,0.7H99.1z"/>
		<path d="M160.7,15.8c8.2,8.7,1.8,25.6,1.8,25.6c-3.2,10.8-8.1,15.6-13.3,17.1c-32.1,9.1-40.1-14.1-43.6-26.6
			c-3.5-12.6,3-16.1,7.2-17.6C138.3,4.6,157.4,12.3,160.7,15.8z"/>
	</g>
</g>
<g id="weather">
</g>
</svg>
